# xmcd
#
# Track frame offsets:
#	150
#	18136
#	34575
#	56141
#	72762
#	94264
#	119880
#	139955
#	157934
#	180740
#	205364
#	226916
#
# Disc length: 3373 seconds
#
# Revision: 0
# Processed by: cddbd v1.5.2PL0 Copyright (c) Steve Scherf et al.
# Submitted via: EZCDAudioConverter 8.0.2.1
#
DISCID=a60d2b0c
DTITLE=Nguyễn Phi Hùng - Vol 05. Nhớ Gấp Ngàn Lần Hơn
DYEAR=2002
DGENRE=World Pop
TTITLE0=Nguyễn Phi Hùng - Tìm lại dấu yêu xua
TTITLE1=Nguyễn Phi Hùng - Chỉ tại vô tình
TTITLE2=Nguyễn Phi Hùng - Nhớ Gấp Ngàn Lần Hơn
TTITLE3=Nguyễn Phi Hùng - Tình em không chỉ riêng mình
TTITLE4=Nguyễn Phi Hùng - Khi mẹ khóc
TTITLE5=Nguyễn Phi Hùng - Khúc tự tình
TTITLE6=Nguyễn Phi Hùng - Hero
TTITLE7=Nguyễn Phi Hùng - Trái tim và ước nguyện
TTITLE8=Nguyễn Phi Hùng - Đôi bờ
TTITLE9=Nguyễn Phi Hùng - Trái tim muộn phiền
TTITLE10=Soundtrack - Nhớ Gấp Ngàn Lần Hơn
TTITLE11=Soundtrack - Khúc tự tình
EXTD=
EXTT0=
EXTT1=
EXTT2=
EXTT3=
EXTT4=
EXTT5=
EXTT6=
EXTT7=
EXTT8=
EXTT9=
EXTT10=
EXTT11=
PLAYORDER=
